:SAMPLES-PER-SECOND 30
:FULLY-SPECIFIED
:DEGREES
45
root  34.82788266 36.59190381 -14.01135903 10.0692749 -4.214375973 3.158766508
lowerback  -8.969490051 -0.2133229524 -0.2261950076
upperback  -3.354860067 0.1859229952 -3.385420084
thorax  1.561679959 0.238726005 -3.354049921
lowerneck  -13.17059994 -7.971789837 -6.1603899
upperneck  15.72789955 -10.94190025 8.443969727
head  7.840771675 -4.697949886 2.578922272
lclavicle  0 -4.497500157e-015 -2.743230041e-014
lhumerus  -47.9048996 31.45389938 63.30770111
lradius  0.001172923949 -6.507048965e-006 29.74616051
lwrist  3.192251654e-007 -3.790274832e-007 -28.40600014
lhand  -4.413496317e-031 -36.8628006 -10.70259953
lfingers  90 7.125020027 -90
lthumb  94.80449005 -25.53925537 101.0317809
rclavicle  0 -4.497500157e-015 -2.743230041e-014
rhumerus  -48.12120056 -26.76609802 -62.13899994
rradius  -5.16745672e-007 2.214343908e-008 63.33560181
rwrist  0.0003490542294 -0.002273720223 -164.322998
rhand  -1.766219276e-031 -1.562540054 -7.768740177
rfingers  -90 -7.125020027 -90
rthumb  -86.41565794 -7.958748594 -65.6576747
rfemur  -10.56832409 14.33206177 12.61924267
rtibia  0.5130957961 -1.162641644 17.04830933
rfoot  1.904356837 -21.95158195 -34.56514359
rtoes  4.072811509 19.59756121 -101.9852949
lfemur  -1.905169487 -15.45730877 -23.02922058
ltibia  8.405520439 -0.2333721519 4.046684742
lfoot  0.06034499034 -20.30508232 35.62487793
ltoes  -8.689767829 -18.08358083 -116.2150106
46
root  34.82556381 36.59015866 -14.00658615 10.09546185 -4.260339737 3.17257309
lowerback  -8.872460365 -0.2244210392 -0.2359400541
upperback  -3.386950016 0.1683990061 -3.367840052
thorax  1.473960042 0.229264006 -3.331650019
lowerneck  -13.0965004 -8.043560028 -6.280089855
upperneck  15.74370003 -11.03020096 8.50028038
head  7.854821682 -4.743510723 2.603591204
lclavicle  0 -4.497500157e-015 -2.743230041e-014
lhumerus  -47.96839905 31.41959953 63.28609848
lradius  0.001172923949 -6.507048965e-006 29.74799728
lwrist  3.192251654e-007 -3.790274832e-007 -28.38780022
lhand  -4.411822586e-031 -36.83380127 -10.68150043
lfingers  90 7.125020027 -90
lthumb  94.78643495 -25.51960645 100.9988485
rclavicle  0 -4.497500157e-015 -2.743230041e-014
rhumerus  -47.98590088 -26.37960052 -62.12900162
rradius  -5.16745672e-007 2.214343908e-008 64.5644989
rwrist  0.0003490542294 -0.002273720223 -164.9450073
rhand  -3.532520727e-031 -1.610659957 -7.88409996
rfingers  -90 -7.125020027 -90
rthumb  -86.47255464 -7.850887586 -65.71107238
rfemur  -10.63543797 14.32304764 12.60318184
rtibia  0.5010898113 -1.158182502 17.12139702
rfoot  1.892724633 -21.95739937 -34.49749756
rtoes  4.060096623 19.60009991 -101.947389
lfemur  -1.924171805 -15.48223591 -23.04438019
ltibia  8.405900002 -0.2584724724 4.048308849
lfoot  0.05909419805 -20.2400322 35.6743927
ltoes  -8.686120437 -18.0852876 -116.2032606
47
root  34.82225373 36.58738324 -14.00297871 10.11133671 -4.297873974 3.170511723
lowerback  -8.820360184 -0.2315619886 -0.2467421293
upperback  -3.407020092 0.1593299955 -3.372699976
thorax  1.423969984 0.2248069942 -3.331320047
lowerneck  -13.0291996 -8.106089592 -6.308239937
upperneck  15.74839973 -11.11470032 8.509570122
head  7.850865364 -4.784589767 2.607250214
lclavicle  0 -4.497500157e-015 -2.743230041e-014
lhumerus  -47.99539948 31.38470078 63.25350189
lradius  0.001172923949 -6.507048965e-006 29.74160194
lwrist  3.192251654e-007 -3.790274832e-007 -28.4090004
lhand  -4.410698426e-031 -36.81430054 -10.71730042
lfingers  90 7.125020027 -90
lthumb  94.78479881 -25.5553448 100.9811672
rclavicle  0 -4.497500157e-015 -2.743230041e-014
rhumerus  -47.82740021 -25.97909927 -62.11859894
rradius  -5.16745672e-007 2.214343908e-008 65.8667984
rwrist  0.0003490542294 -0.002273720223 -165.3470001
rhand  -1.766349491e-031 -1.710389972 -7.957330227
rfingers  -90 -7.125020027 -90
rthumb  -86.52121851 -7.778498632 -65.81232449
rfemur  -10.64291763 14.29639626 12.59939671
rtibia  0.5093352795 -1.169731617 17.11033821
rfoot  1.903471112 -21.98159981 -34.44692612
rtoes  4.056367035 19.60084299 -101.9362711
lfemur  -1.923894763 -15.46323872 -23.04201508
ltibia  8.405280113 -0.2472800761 4.049522877
lfoot  0.06867922843 -20.26825905 35.70239258
ltoes  -8.667488068 -18.09399242 -116.1432539
48
root  34.81807559 36.58935967 -14.00123506 10.11371136 -4.340307713 3.175694704
lowerback  -8.835008621 -0.2454889119 -0.2576571703
upperback  -3.406539917 0.1422529966 -3.371370077
thorax  1.431579947 0.216493994 -3.331059933
lowerneck  -12.95940018 -8.185549736 -6.355720043
upperneck  15.74800014 -11.2256012 8.561050415
head  7.850379944 -4.836019993 2.619999886
lclavicle  0 -4.497500157e-015 -2.743230041e-014
lhumerus  -48.05860138 31.42289925 63.18849945
lradius  0.001172923949 -6.507048965e-006 29.7743988
lwrist  3.192251654e-007 -3.790274832e-007 -28.50690079
lhand  -4.411978144e-031 -36.83649826 -10.7177
lfingers  90 7.125020027 -90
lthumb  94.79534592 -25.5550236 101.005019
rclavicle  0 -4.497500157e-015 -2.743230041e-014
rhumerus  -47.58710098 -25.59690285 -62.10390091
rradius  -5.16745672e-007 2.214343908e-008 67.19309998
rwrist  0.0003490542294 -0.002273720223 -165.5399933
rhand  -1.766315781e-031 -1.673370004 -8.140789986
rfingers  -90 -7.125020027 -90
rthumb  -86.59039293 -7.61327723 -65.78646979
rfemur  -10.66380882 14.28141403 12.59860992
rtibia  0.5052449703 -1.168931246 17.14459419
rfoot  1.910049915 -21.99147987 -34.3719635
rtoes  4.06279598 19.59956164 -101.955436
lfemur  -1.914605856 -15.43391514 -23.05054855
ltibia  8.404263496 -0.2455312312 4.050047874
lfoot  0.07329877466 -20.27950096 35.71638489
ltoes  -8.645678462 -18.10415184 -116.07305
49
root  34.81606611 36.59054013 -13.9972882 10.10462666 -4.375888348 3.184018612
lowerback  -8.840439796 -0.2468000203 -0.260212481
upperback  -3.413700104 0.1412419975 -3.370120049
thorax  1.42711997 0.2162020057 -3.330571175
lowerneck  -12.88099957 -8.28028965 -6.451539993
upperneck  15.73460007 -11.35120106 8.627360344
head  7.852079868 -4.896999836 2.643610239
lclavicle  0 -4.497500157e-015 -2.743230041e-014
lhumerus  -48.09949875 31.43379974 63.15719986
lradius  0.001172923949 -6.507048965e-006 29.78929901
lwrist  3.192251654e-007 -3.790274832e-007 -28.64489937
lhand  -4.410243308e-031 -36.8064003 -10.72809982
lfingers  90 7.125020027 -90
lthumb  94.78340253 -25.56628479 100.9737506
rclavicle  0 -4.497500157e-015 -2.743230041e-014
rhumerus  -47.37200165 -25.28580093 -62.00529861
rradius  -5.16745672e-007 2.214343908e-008 68.47519684
rwrist  0.0003490542294 -0.002273720223 -166.022995
rhand  -1.7661092e-031 -1.425629973 -8.007570267
rfingers  -90 -7.125020027 -90
rthumb  -86.48991654 -7.749001757 -65.53800254
rfemur  -10.67209435 14.32840729 12.59214973
rtibia  0.4996173382 -1.133758426 17.17016411
rfoot  1.92237401 -21.91093826 -34.34795761
rtoes  4.067129194 19.59869679 -101.9683541
lfemur  -1.891475916 -15.46255112 -23.07770538
ltibia  8.403455734 -0.2772434354 4.049604416
lfoot  0.07106021047 -20.22127151 35.73963165
ltoes  -8.658636908 -18.09811937 -116.1147579
